<svg width="20" height="20" viewBox="0 0 20 20" fill="none" xmlns="http://www.w3.org/2000/svg">
<g id="svg0 9">
<path id="Path" d="M19.9997 10.2247C19.9997 9.56634 19.9401 8.94134 19.8379 8.33301H10.2168V12.0913H15.7255C15.4786 13.3247 14.7549 14.3663 13.6821 15.0747V17.5747H16.9686C18.8928 15.833 19.9997 13.2663 19.9997 10.2247Z" fill="#4285F4"/>
<path id="Path_2" d="M10.2174 19.9999C12.976 19.9999 15.2834 19.0999 16.9692 17.5749L13.6827 15.0749C12.7632 15.6749 11.5967 16.0415 10.2174 16.0415C7.55244 16.0415 5.29616 14.2832 4.48731 11.9082H1.09863V14.4832C2.77594 17.7499 6.22422 19.9999 10.2174 19.9999Z" fill="#34A853"/>
<path id="Path_3" d="M4.48702 11.9083C4.27416 11.3083 4.16347 10.6666 4.16347 9.99993C4.16347 9.33327 4.28267 8.6916 4.48702 8.0916V5.5166H1.09834C0.40017 6.8666 0 8.38327 0 9.99993C0 11.6166 0.40017 13.1333 1.09834 14.4833L4.48702 11.9083Z" fill="#FBBC05"/>
<path id="Path_4" d="M10.2174 3.95833C11.7244 3.95833 13.0697 4.46667 14.134 5.45833L17.0458 2.60833C15.2834 0.991667 12.976 0 10.2174 0C6.22422 0 2.77594 2.25 1.09863 5.51667L4.48731 8.09167C5.29616 5.71667 7.55244 3.95833 10.2174 3.95833Z" fill="#EA4335"/>
</g>
</svg>
